<svg width="26" height="26" viewBox="0 0 26 26" fill="none" xmlns="http://www.w3.org/2000/svg">
<g opacity="0.3">
<path d="M6.76905 19.9127C5.92072 19.9112 5.09424 19.6486 4.40586 19.1619C3.71749 18.6752 3.20188 17.9888 2.93157 17.1994L2.89365 17.0771C2.77229 16.7042 2.7091 16.3155 2.70621 15.9241V8.67221L0.0778338 17.2855C-0.0830311 17.8984 0.00755705 18.5488 0.330113 19.0968C0.652669 19.6448 1.18142 20.0466 1.80264 20.2159L18.5556 24.6204C18.7647 24.6736 18.9738 24.6991 19.1796 24.6991C20.2587 24.6991 21.2446 23.996 21.5209 22.96L22.4971 19.9127H6.76905ZM9.74846 8.74454C10.9435 8.74454 11.9153 7.79045 11.9153 6.61726C11.9153 5.44407 10.9435 4.48999 9.74846 4.48999C8.55344 4.48999 7.58161 5.44407 7.58161 6.61726C7.58161 7.79045 8.55344 8.74454 9.74846 8.74454Z" fill="#333F4E"/>
<path d="M23.2914 1.29907H7.0401C6.32201 1.29992 5.63358 1.58034 5.12581 2.07883C4.61804 2.57733 4.3324 3.25319 4.33154 3.95816V15.6582C4.33154 17.1239 5.54714 18.3173 7.0401 18.3173H23.2914C24.7844 18.3173 26 17.1239 26 15.6582V3.95816C26 2.49247 24.7844 1.29907 23.2914 1.29907ZM7.0401 3.42634H23.2914C23.4351 3.42634 23.5729 3.48238 23.6745 3.58211C23.7761 3.68185 23.8331 3.81712 23.8331 3.95816V11.5089L20.4106 7.58835C20.2296 7.38428 20.0065 7.22039 19.756 7.1076C19.5054 6.99481 19.2333 6.9357 18.9577 6.93422C18.6812 6.93562 18.4083 6.99643 18.1583 7.11237C17.9082 7.22832 17.6871 7.39659 17.5103 7.60537L13.4865 12.3471L12.1755 11.0633C11.819 10.7138 11.3358 10.5175 10.8321 10.5175C10.3283 10.5175 9.84513 10.7138 9.48863 11.0633L6.49839 13.9978V3.95816C6.49839 3.81712 6.55546 3.68185 6.65705 3.58211C6.75864 3.48238 6.89643 3.42634 7.0401 3.42634Z" fill="#333F4E"/>
</g>
</svg>
