<svg width="127" height="52" viewBox="0 0 127 52" fill="none" xmlns="http://www.w3.org/2000/svg">
<path d="M72.248 17.32C74.024 17.32 75.576 17.664 76.904 18.352C78.248 19.024 79.28 20 80 21.28C80.736 22.544 81.104 24.024 81.104 25.72C81.104 27.416 80.736 28.888 80 30.136C79.28 31.384 78.248 32.344 76.904 33.016C75.576 33.672 74.024 34 72.248 34H66.8V17.32H72.248ZM72.248 31.768C74.2 31.768 75.696 31.24 76.736 30.184C77.776 29.128 78.296 27.64 78.296 25.72C78.296 23.784 77.776 22.272 76.736 21.184C75.696 20.096 74.2 19.552 72.248 19.552H69.536V31.768H72.248ZM86.5516 22.696C86.9516 22.024 87.4796 21.504 88.1356 21.136C88.8076 20.752 89.5996 20.56 90.5116 20.56V23.392H89.8156C88.7436 23.392 87.9276 23.664 87.3676 24.208C86.8236 24.752 86.5516 25.696 86.5516 27.04V34H83.8156V20.776H86.5516V22.696ZM94.4186 19.024C93.9226 19.024 93.5066 18.856 93.1706 18.52C92.8346 18.184 92.6666 17.768 92.6666 17.272C92.6666 16.776 92.8346 16.36 93.1706 16.024C93.5066 15.688 93.9226 15.52 94.4186 15.52C94.8986 15.52 95.3066 15.688 95.6426 16.024C95.9786 16.36 96.1466 16.776 96.1466 17.272C96.1466 17.768 95.9786 18.184 95.6426 18.52C95.3066 18.856 94.8986 19.024 94.4186 19.024ZM95.7626 20.776V34H93.0266V20.776H95.7626ZM104.467 31.552L108.211 20.776H111.115L106.075 34H102.811L97.7947 20.776H100.723L104.467 31.552ZM118.919 34.216C117.671 34.216 116.543 33.936 115.535 33.376C114.527 32.8 113.735 32 113.159 30.976C112.583 29.936 112.295 28.736 112.295 27.376C112.295 26.032 112.591 24.84 113.183 23.8C113.775 22.76 114.583 21.96 115.607 21.4C116.631 20.84 117.775 20.56 119.039 20.56C120.303 20.56 121.447 20.84 122.471 21.4C123.495 21.96 124.303 22.76 124.895 23.8C125.487 24.84 125.783 26.032 125.783 27.376C125.783 28.72 125.479 29.912 124.871 30.952C124.263 31.992 123.431 32.8 122.375 33.376C121.335 33.936 120.183 34.216 118.919 34.216ZM118.919 31.84C119.623 31.84 120.279 31.672 120.887 31.336C121.511 31 122.015 30.496 122.399 29.824C122.783 29.152 122.975 28.336 122.975 27.376C122.975 26.416 122.791 25.608 122.423 24.952C122.055 24.28 121.567 23.776 120.959 23.44C120.351 23.104 119.695 22.936 118.991 22.936C118.287 22.936 117.631 23.104 117.023 23.44C116.431 23.776 115.959 24.28 115.607 24.952C115.255 25.608 115.079 26.416 115.079 27.376C115.079 28.8 115.439 29.904 116.159 30.688C116.895 31.456 117.815 31.84 118.919 31.84Z" fill="#FA7275"/>
<rect opacity="0.2" width="48" height="48" rx="24" fill="#FA7275"/>
<rect x="21" y="20" width="32" height="32" rx="16" fill="#FA7275"/>
</svg>
