<svg width="199" height="82" viewBox="0 0 199 82" fill="none" xmlns="http://www.w3.org/2000/svg">
<path d="M112.635 27.4688C115.404 27.4688 117.823 28.0051 119.894 29.0777C121.989 30.1253 123.598 31.6469 124.721 33.6425C125.868 35.613 126.442 37.9204 126.442 40.5644C126.442 43.2085 125.868 45.5034 124.721 47.449C123.598 49.3947 121.989 50.8913 119.894 51.939C117.823 52.9617 115.404 53.473 112.635 53.473H104.142V27.4688H112.635ZM112.635 49.9933C115.678 49.9933 118.011 49.1702 119.632 47.5239C121.253 45.8775 122.064 43.5577 122.064 40.5644C122.064 37.5462 121.253 35.189 119.632 33.4928C118.011 31.7966 115.678 30.9485 112.635 30.9485H108.407V49.9933H112.635ZM134.935 35.85C135.558 34.8024 136.381 33.9917 137.404 33.418C138.452 32.8193 139.686 32.52 141.108 32.52V36.9351H140.023C138.352 36.9351 137.08 37.3591 136.207 38.2072C135.359 39.0553 134.935 40.527 134.935 42.6223V53.473H130.669V32.8567H134.935V35.85ZM147.199 30.1253C146.426 30.1253 145.777 29.8634 145.254 29.3396C144.73 28.8158 144.468 28.1672 144.468 27.394C144.468 26.6207 144.73 25.9722 145.254 25.4483C145.777 24.9245 146.426 24.6626 147.199 24.6626C147.947 24.6626 148.584 24.9245 149.107 25.4483C149.631 25.9722 149.893 26.6207 149.893 27.394C149.893 28.1672 149.631 28.8158 149.107 29.3396C148.584 29.8634 147.947 30.1253 147.199 30.1253ZM149.294 32.8567V53.473H145.029V32.8567H149.294ZM162.864 49.6566L168.701 32.8567H173.229L165.371 53.473H160.283L152.463 32.8567H157.027L162.864 49.6566ZM185.395 53.8098C183.45 53.8098 181.691 53.3732 180.12 52.5002C178.548 51.6022 177.313 50.355 176.415 48.7586C175.517 47.1372 175.068 45.2664 175.068 43.1462C175.068 41.0509 175.53 39.1925 176.453 37.5712C177.376 35.9498 178.635 34.7026 180.232 33.8295C181.828 32.9565 183.612 32.52 185.582 32.52C187.553 32.52 189.336 32.9565 190.933 33.8295C192.529 34.7026 193.789 35.9498 194.712 37.5712C195.635 39.1925 196.096 41.0509 196.096 43.1462C196.096 45.2415 195.622 47.0998 194.674 48.7212C193.727 50.3425 192.429 51.6022 190.783 52.5002C189.162 53.3732 187.366 53.8098 185.395 53.8098ZM185.395 50.1056C186.493 50.1056 187.515 49.8437 188.463 49.3198C189.436 48.796 190.222 48.0103 190.821 46.9626C191.419 45.915 191.719 44.6428 191.719 43.1462C191.719 41.6495 191.432 40.3898 190.858 39.3671C190.284 38.3195 189.523 37.5337 188.576 37.0099C187.628 36.4861 186.605 36.2242 185.507 36.2242C184.41 36.2242 183.387 36.4861 182.439 37.0099C181.516 37.5337 180.781 38.3195 180.232 39.3671C179.683 40.3898 179.409 41.6495 179.409 43.1462C179.409 45.3662 179.97 47.0873 181.092 48.3096C182.24 49.5069 183.674 50.1056 185.395 50.1056Z" fill="white"/>
<rect opacity="0.2" width="74.8323" height="74.8323" rx="37.4161" fill="white"/>
<rect x="32.7393" y="31.1801" width="49.8882" height="49.8882" rx="24.9441" fill="white"/>
</svg>
